<svg width="27" height="27" viewBox="0 0 27 27" fill="none" xmlns="http://www.w3.org/2000/svg">
<g clip-path="url(#clip0_361_1213)">
<path d="M13.7796 10.8813H10.03M13.7796 10.8813V3.65869H10.03C9.03536 3.65869 8.08149 4.03917 7.37819 4.71641C6.67489 5.39366 6.27979 6.31221 6.27979 7.26998C6.27979 8.22776 6.67489 9.1463 7.37819 9.82355C8.08149 10.5008 9.03536 10.8813 10.03 10.8813M13.7796 10.8813V18.1028H10.03M13.7796 10.8813H17.5292M10.03 10.8813C9.03551 10.8813 8.08178 11.2617 7.37859 11.9388C6.6754 12.616 6.28035 13.5344 6.28035 14.492C6.28035 15.4497 6.6754 16.3681 7.37859 17.0452C8.08178 17.7224 9.03551 18.1028 10.03 18.1028M10.03 18.1028C9.28841 18.1028 8.56351 18.3145 7.94691 18.7112C7.33031 19.1079 6.84971 19.6718 6.56588 20.3315C6.28205 20.9912 6.20772 21.7172 6.35231 22.4175C6.4969 23.1179 6.85391 23.7613 7.37819 24.2663C7.90247 24.7713 8.57049 25.1153 9.29777 25.2548C10.0251 25.3942 10.7789 25.3229 11.4641 25.0497C12.1493 24.7766 12.735 24.314 13.1471 23.7203C13.5593 23.1267 13.7794 22.4287 13.7796 21.7146M17.5292 10.8813C16.5348 10.8813 15.581 11.2617 14.8778 11.9388C14.1746 12.616 13.7796 13.5344 13.7796 14.492C13.7796 15.4497 14.1746 16.3681 14.8778 17.0452C15.581 17.7224 16.5348 18.1028 17.5292 18.1028C18.5237 18.1028 19.4774 17.7224 20.1806 17.0452C20.8838 16.3681 21.2788 15.4497 21.2788 14.492C21.2788 13.5344 20.8838 12.616 20.1806 11.9388C19.4774 11.2617 18.5237 10.8813 17.5292 10.8813ZM17.5292 10.8813C18.5238 10.8813 19.4777 10.5008 20.181 9.82355C20.8843 9.1463 21.2794 8.22776 21.2794 7.26998C21.2794 6.31221 20.8843 5.39366 20.181 4.71641C19.4777 4.03917 18.5238 3.65869 17.5292 3.65869" stroke="white" stroke-width="2" stroke-linecap="round" stroke-linejoin="round"/>
</g>
<defs>
<clipPath id="clip0_361_1213">
<rect width="27" height="26" fill="white" transform="translate(0 0.501831)"/>
</clipPath>
</defs>
</svg>
