{
    "asset" : {
        "generator" : "Khronos glTF Blender I/O v1.8.19",
        "version" : "2.0"
    },
    "scene" : 0,
    "scenes" : [
        {
            "name" : "Scene",
            "nodes" : [
                0
            ]
        }
    ],
    "nodes" : [
        {
            "mesh" : 0,
            "name" : "Curve.002",
            "rotation" : [
                0.7071068286895752,
                0,
                0,
                0.7071068286895752
            ],
            "scale" : [
                85.57070922851562,
                85.57070922851562,
                85.57070922851562
            ],
            "translation" : [
                0.5302692651748657,
                3.008472204208374,
                -0.048640962690114975
            ]
        }
    ],
    "materials" : [
        {
            "doubleSided" : true,
            "name" : "SVGMat.001",
            "pbrMetallicRoughness" : {
                "baseColorFactor" : [
                    1,
                    1,
                    1,
                    1
                ],
                "metallicFactor" : 0.5257731676101685,
                "roughnessFactor" : 0.7711340188980103
            }
        }
    ],
    "meshes" : [
        {
            "name" : "Curve.002",
            "primitives" : [
                {
                    "attributes" : {
                        "POSITION" : 0,
                        "NORMAL" : 1,
                        "TEXCOORD_0" : 2
                    },
                    "indices" : 3,
                    "material" : 0
                }
            ]
        }
    ],
    "accessors" : [
        {
            "bufferView" : 0,
            "componentType" : 5126,
            "count" : 11032,
            "max" : [
                0.041840534657239914,
                3.680067675304599e-05,
                0.0047250185161828995
            ],
            "min" : [
                -0.040832143276929855,
                -0.008364061824977398,
                -0.08171725273132324
            ],
            "type" : "VEC3"
        },
        {
            "bufferView" : 1,
            "componentType" : 5126,
            "count" : 11032,
            "type" : "VEC3"
        },
        {
            "bufferView" : 2,
            "componentType" : 5126,
            "count" : 11032,
            "type" : "VEC2"
        },
        {
            "bufferView" : 3,
            "componentType" : 5123,
            "count" : 16548,
            "type" : "SCALAR"
        }
    ],
    "bufferViews" : [
        {
            "buffer" : 0,
            "byteLength" : 132384,
            "byteOffset" : 0
        },
        {
            "buffer" : 0,
            "byteLength" : 132384,
            "byteOffset" : 132384
        },
        {
            "buffer" : 0,
            "byteLength" : 88256,
            "byteOffset" : 264768
        },
        {
            "buffer" : 0,
            "byteLength" : 33096,
            "byteOffset" : 353024
        }
    ],
    "buffers" : [
        {
            "byteLength" : 386120,
            "uri" : "logo.bin"
        }
    ]
}
