<svg width="25" height="27" viewBox="0 0 25 27" fill="none" xmlns="http://www.w3.org/2000/svg">
<path d="M24.172 13.2256C23.2532 10.7537 21.658 8.61596 19.5836 7.07665C17.5092 5.53734 15.0466 4.66392 12.5002 4.56433C9.95368 4.66392 7.49108 5.53734 5.41672 7.07665C3.34236 8.61596 1.74716 10.7537 0.828281 13.2256C0.766224 13.4041 0.766224 13.5996 0.828281 13.7781C1.74716 16.25 3.34236 18.3877 5.41672 19.927C7.49108 21.4663 9.95368 22.3397 12.5002 22.4393C15.0466 22.3397 17.5092 21.4663 19.5836 19.927C21.658 18.3877 23.2532 16.25 24.172 13.7781C24.2341 13.5996 24.2341 13.4041 24.172 13.2256ZM12.5002 20.8143C8.35953 20.8143 3.98453 17.6212 2.39859 13.5018C3.98453 9.38246 8.35953 6.18933 12.5002 6.18933C16.6408 6.18933 21.0158 9.38246 22.6017 13.5018C21.0158 17.6212 16.6408 20.8143 12.5002 20.8143Z" fill="white"/>
<path d="M12.5 8.62683C11.5729 8.62683 10.6666 8.91275 9.89577 9.44842C9.12491 9.98409 8.5241 10.7455 8.16932 11.6362C7.81453 12.527 7.7217 13.5072 7.90257 14.4529C8.08344 15.3986 8.52988 16.2672 9.18544 16.949C9.841 17.6308 10.6762 18.0951 11.5855 18.2832C12.4948 18.4713 13.4373 18.3747 14.2938 18.0057C15.1504 17.6368 15.8824 17.0119 16.3975 16.2102C16.9126 15.4085 17.1875 14.466 17.1875 13.5018C17.1875 12.2089 16.6936 10.9689 15.8146 10.0547C14.9355 9.14045 13.7432 8.62683 12.5 8.62683ZM12.5 16.7518C11.8819 16.7518 11.2777 16.5612 10.7638 16.2041C10.2499 15.847 9.8494 15.3394 9.61288 14.7456C9.37635 14.1517 9.31447 13.4982 9.43505 12.8678C9.55563 12.2373 9.85325 11.6583 10.2903 11.2037C10.7273 10.7492 11.2842 10.4397 11.8903 10.3143C12.4965 10.1889 13.1249 10.2532 13.6959 10.4992C14.2669 10.7452 14.755 11.1618 15.0983 11.6962C15.4417 12.2307 15.625 12.859 15.625 13.5018C15.625 14.3638 15.2958 15.1904 14.7097 15.7999C14.1237 16.4094 13.3288 16.7518 12.5 16.7518Z" fill="white"/>
</svg>
